<svg width="291" height="353" viewBox="0 0 291 353" fill="none" xmlns="http://www.w3.org/2000/svg">
<g filter="url(#filter0_d_148_440)">
<path opacity="0.18" d="M273.665 289.993C264.605 303.793 251.915 314.903 237.995 323.823L235.395 325.463C225.045 331.803 214.045 337.123 202.215 339.923C189.965 342.823 177.215 342.923 164.655 343.063C141.555 343.263 118.355 342.793 95.3354 344.463C77.1454 345.793 61.3354 335.843 49.3354 322.583C48.8354 322.033 48.3354 321.463 47.8654 320.903C37.1354 308.473 29.7154 293.543 22.7454 278.663C14.1554 260.343 5.94544 241.353 4.32544 221.203C2.99544 204.673 6.15544 188.123 6.40544 171.543C6.71544 150.953 2.53544 130.323 4.86544 109.853C6.86544 91.9426 13.8654 74.8526 22.8654 59.2326C30.8654 45.2826 40.5854 32.1226 53.0954 22.0426C67.7492 10.4433 85.3151 3.10484 103.865 0.832574C146.345 -4.63743 191.105 17.2626 212.825 54.2626C233.585 89.5726 233.365 133.803 251.695 170.433C263.375 193.773 282.595 214.263 286.165 240.113C288.565 257.433 283.295 275.343 273.665 289.993Z" fill="#68E1FD" fill-opacity="0.5"/>
<path opacity="0.54" d="M237.985 323.823L235.385 325.463C225.045 331.803 214.045 337.123 202.215 339.923C189.965 342.823 177.215 342.923 164.655 343.062C141.555 343.263 118.355 342.793 95.3354 344.463C77.1454 345.793 61.3354 335.843 49.3354 322.583C48.8354 322.033 48.3354 321.463 47.8654 320.903C69.0954 314.243 101.955 309.963 138.865 309.963C180.855 309.963 217.655 315.513 237.985 323.823Z" fill="#68E1FD"/>
<path d="M152.645 302.393L153.645 312.273C153.645 312.273 149.865 317.993 144.925 318.363C139.985 318.733 138.305 316.363 138.305 316.363L139.115 301.833" fill="#F7AD7E"/>
<path d="M138.255 316.363L138.585 310.533L153.055 306.633L153.595 312.273C153.595 312.273 149.815 317.993 144.875 318.363C139.935 318.733 138.255 316.363 138.255 316.363Z" fill="white"/>
<path d="M106.505 300.263L105.445 313.543C105.445 313.543 109.325 319.423 114.395 319.803C119.465 320.183 121.195 317.743 121.195 317.743L120.365 302.823" fill="#F7AD7E"/>
<path d="M121.195 317.783L120.865 311.783L105.995 307.783L105.445 313.563C105.445 313.563 109.325 319.443 114.395 319.823C119.465 320.203 121.195 317.783 121.195 317.783Z" fill="white"/>
<path d="M100.725 173.723C100.725 173.723 99.8354 188.183 102.055 231.043C104.275 273.903 104.935 300.523 104.935 300.523C104.935 300.523 107.125 305.603 114.505 305.703C121.885 305.803 122.385 302.703 122.385 302.703L129.595 192.823L137.125 304.953C137.125 304.953 146.785 306.693 153.695 302.873C158.595 300.153 152.605 173.593 152.605 173.593C152.605 173.593 128.925 186.603 100.725 173.723Z" fill="#3F3D56"/>
<path d="M118.565 81.6426C118.565 81.6426 98.9454 91.1226 98.4954 94.2626C98.0454 97.4026 100.725 173.753 100.725 173.753C100.725 173.753 107.085 182.013 126.595 182.013C146.595 182.013 151.725 176.303 152.595 173.643C153.465 170.983 156.675 94.8526 156.235 91.6426C155.795 88.4326 137.695 81.7726 137.695 81.7726L118.565 81.6426Z" fill="#F3FCFF"/>
<path d="M140.795 111.113L139.045 110.863C139.685 106.273 140.895 97.1025 140.895 95.2825C140.895 93.4625 139.965 85.4925 135.635 81.5325C134.707 80.6726 133.603 80.0244 132.4 79.6325C131.196 79.2406 129.922 79.1144 128.665 79.2625C118.215 80.1825 115.595 87.0925 115.425 87.5725C114.775 90.1605 114.281 92.7852 113.945 95.4325H112.145C112.483 92.6295 112.997 89.8506 113.685 87.1125V87.0526C113.795 86.7025 116.535 78.5225 128.485 77.4725C129.984 77.2989 131.502 77.4512 132.937 77.9189C134.371 78.3866 135.687 79.1588 136.795 80.1825C141.645 84.6325 142.635 93.1826 142.635 95.2626C142.655 97.6826 140.865 110.573 140.795 111.113Z" fill="#68E1FD"/>
<path d="M140.795 111.113L139.045 110.863C139.685 106.273 140.895 97.1025 140.895 95.2825C140.895 93.4625 139.965 85.4925 135.635 81.5325C134.707 80.6726 133.603 80.0244 132.4 79.6325C131.196 79.2406 129.922 79.1144 128.665 79.2625C118.215 80.1825 115.595 87.0925 115.425 87.5725C114.775 90.1605 114.281 92.7852 113.945 95.4325H112.145C112.483 92.6295 112.997 89.8506 113.685 87.1125V87.0526C113.795 86.7025 116.535 78.5225 128.485 77.4725C129.984 77.2989 131.502 77.4512 132.937 77.9189C134.371 78.3866 135.687 79.1588 136.795 80.1825C141.645 84.6325 142.635 93.1826 142.635 95.2626C142.655 97.6826 140.865 110.573 140.795 111.113Z" fill="url(#paint0_linear_148_440)"/>
<path d="M140.065 176.533L140.545 221.463L160.975 219.433L153.135 148.153L140.065 176.533Z" fill="#F3FCFF"/>
<path d="M119.745 81.6025L119.505 183.263C126.391 185.341 133.811 184.697 140.235 181.463L134.945 81.6025L127.285 83.4025L119.745 81.6025Z" fill="#68E1FD"/>
<path d="M119.745 81.6025L119.505 183.263C126.391 185.341 133.811 184.697 140.235 181.463L134.945 81.6025L127.285 83.4025L119.745 81.6025Z" fill="#68E1FD"/>
<path d="M119.875 70.1226C119.875 70.1226 119.755 76.9726 119.815 81.9826C119.875 85.7226 120.965 92.8926 127.725 92.8926C134.485 92.8926 135.275 83.7526 135.155 81.9826C135.347 79.3194 135.347 76.6458 135.155 73.9826C134.715 69.6626 120.255 67.0926 119.875 70.1226Z" fill="#F7AD7E"/>
<path d="M119.915 77.9925C119.915 77.9925 120.695 86.6625 126.215 85.5425C128.422 85.1518 130.452 84.0857 132.027 82.4915C133.601 80.8973 134.642 78.8536 135.005 76.6425C135.215 75.6901 135.169 74.6991 134.873 73.77C134.576 72.841 134.039 72.0069 133.315 71.3525L119.915 77.9925Z" fill="url(#paint1_linear_148_440)"/>
<path d="M138.705 70.6525C136.575 76.9125 130.855 80.7925 126.845 81.1625C122.835 81.5325 118.455 77.8725 116.695 73.3125C114.935 68.7525 114.695 51.2425 114.695 51.2425C114.641 50.0782 114.871 48.918 115.365 47.8625C115.925 46.5925 116.945 42.7625 118.365 41.6525C124.736 39.9912 131.443 40.1366 137.735 42.0725C139.065 43.2325 139.735 46.9325 140.035 47.6125C140.173 48.0278 140.264 48.4571 140.305 48.8925C140.815 53.1225 140.575 65.1725 138.705 70.6525Z" fill="#F7AD7E"/>
<path d="M114.515 55.9225C114.1 55.6556 113.6 55.5519 113.113 55.6312C112.626 55.7106 112.185 55.9675 111.875 56.3525C111.626 56.8608 111.525 57.4294 111.585 57.9925C111.592 58.5618 111.639 59.1299 111.725 59.6925C112.059 61.2054 112.815 62.5925 113.905 63.6925C114.159 63.9871 114.46 64.2372 114.795 64.4325C114.966 64.5287 115.154 64.5882 115.349 64.6072C115.543 64.6261 115.74 64.6041 115.925 64.5425C116.216 64.3821 116.46 64.1498 116.635 63.8679C116.811 63.5861 116.91 63.264 116.925 62.9325C117.154 61.5335 117.027 60.0994 116.555 58.7625C116.2 57.6204 115.484 56.6241 114.515 55.9225Z" fill="#F7AD7E"/>
<path d="M141.045 55.7025C141.46 55.4345 141.959 55.3292 142.446 55.4067C142.933 55.4842 143.375 55.7392 143.685 56.1225C143.943 56.6318 144.044 57.206 143.975 57.7725C143.979 58.3389 143.932 58.9045 143.835 59.4625C143.503 60.9756 142.747 62.3629 141.655 63.4625C141.402 63.7568 141.101 64.0068 140.765 64.2025C140.595 64.2988 140.407 64.3583 140.212 64.3772C140.017 64.3962 139.821 64.3741 139.635 64.3125C139.344 64.1529 139.099 63.9208 138.924 63.6387C138.749 63.3567 138.65 63.0342 138.635 62.7025C138.403 61.301 138.527 59.8637 138.995 58.5225C139.353 57.3841 140.073 56.3938 141.045 55.7025Z" fill="#F7AD7E"/>
<path d="M119.455 176.533L118.785 221.463L89.7254 219.433L100.875 148.153L119.455 176.533Z" fill="#F3FCFF"/>
<path d="M99.3054 134.533L107.865 115.833L103.585 219.833L89.7254 219.493C89.7254 219.493 100.595 164.313 99.3054 134.533Z" fill="url(#paint2_linear_148_440)"/>
<path d="M154.765 132.263L146.205 113.573L145.925 220.783L160.975 219.433C160.975 219.433 153.475 162.063 154.765 132.263Z" fill="url(#paint3_linear_148_440)"/>
<path d="M98.9055 93.5026C98.9055 93.5026 84.2855 129.083 82.6255 135.263C80.9655 141.443 86.1255 160.093 88.1555 156.893C94.3855 147.053 100.475 131.683 100.475 131.683L98.9055 93.5026Z" fill="#F3FCFF"/>
<path d="M154.985 89.5326C154.985 89.5326 169.595 125.123 171.265 131.293C172.935 137.463 167.755 156.123 165.735 152.923C159.495 143.083 153.415 127.713 153.415 127.713L154.985 89.5326Z" fill="#F3FCFF"/>
<path d="M157.975 138.023C157.565 138.443 145.925 173.273 145.925 173.273C145.925 173.273 153.445 173.273 158.985 173.723C158.985 173.723 170.415 147.093 170.885 144.723C171.355 142.353 174.825 129.463 167.095 127.913C159.365 126.363 157.975 138.023 157.975 138.023Z" fill="#F3FCFF"/>
<path d="M95.9154 141.992C96.3154 142.412 107.915 177.242 107.915 177.242C107.915 177.242 100.385 177.242 94.8454 177.692C94.8454 177.692 83.4254 151.062 82.9454 148.692C82.4654 146.322 79.0154 133.432 86.7354 131.882C94.4554 130.332 95.9154 141.992 95.9154 141.992Z" fill="#F3FCFF"/>
<path d="M140.465 56.3625C140.465 56.0825 140.365 55.8025 140.305 55.5225C139.941 54.024 139.443 52.5613 138.815 51.1525C137.815 48.7625 136.885 46.3825 135.925 43.9925C135.775 43.6125 135.615 43.2425 135.465 42.8625V42.7925C135.474 42.8077 135.479 42.825 135.479 42.8425C135.479 42.8601 135.474 42.8773 135.465 42.8925C135.308 43.0578 135.112 43.1815 134.895 43.2525C133.593 43.7417 132.256 44.1328 130.895 44.4225C129.115 44.662 127.304 44.5327 125.575 44.0425C124.085 43.6125 122.575 42.3425 120.995 42.4125H120.755C119.948 42.4489 119.178 42.7604 118.572 43.2952C117.966 43.83 117.562 44.556 117.425 45.3525C117.109 49.2231 116.275 53.0337 114.945 56.6825C113.245 55.5325 113.065 53.2525 113.055 51.2825C113.045 49.3125 113.055 47.2025 113.055 45.1525C112.983 44.1639 113.095 43.1703 113.385 42.2225C113.543 41.7316 113.825 41.2897 114.203 40.9394C114.582 40.5891 115.044 40.3422 115.545 40.2225C116.365 40.0825 117.305 40.3525 118.005 39.9025C118.269 39.6626 118.481 39.371 118.627 39.0459C118.773 38.7207 118.851 38.369 118.855 38.0125C118.983 36.5593 119.52 35.1721 120.405 34.0125C122.345 31.7225 126.045 31.5725 128.975 32.5325C131.905 33.4925 134.435 35.3025 137.305 36.4125C139.305 37.1625 141.485 37.6725 142.735 39.2725C143.302 40.1745 143.642 41.2005 143.725 42.2625C144.155 44.7113 144.087 47.2214 143.527 49.6436C142.967 52.0658 141.926 54.3507 140.465 56.3625Z" fill="#3F3D56"/>
<path d="M141.095 54.4426C140.913 54.8553 140.643 55.2238 140.305 55.5226C139.941 54.024 139.443 52.5614 138.815 51.1526C137.702 48.3926 136.585 45.6293 135.465 42.8626C136.118 42.4725 136.837 42.2048 137.585 42.0726C138.082 41.9825 138.592 42.0011 139.08 42.1271C139.569 42.2531 140.024 42.4836 140.415 42.8026C140.988 43.3862 141.38 44.1222 141.545 44.9226C141.839 46.2351 141.977 47.5778 141.955 48.9226C142.144 50.8058 141.848 52.706 141.095 54.4426Z" fill="url(#paint4_linear_148_440)"/>
<path d="M139.465 41.6725C138.16 42.2344 136.962 43.0195 135.925 43.9925C135.775 43.6125 135.615 43.2425 135.465 42.8625V42.7925C135.474 42.8077 135.479 42.8249 135.479 42.8425C135.479 42.8601 135.474 42.8773 135.465 42.8925C135.308 43.0578 135.112 43.1815 134.895 43.2525C133.593 43.7417 132.256 44.1328 130.895 44.4225C129.115 44.662 127.304 44.5326 125.575 44.0425C124.085 43.6125 122.575 42.3425 120.995 42.4125H120.755C120.835 42.1725 120.935 41.9125 121.025 41.6325C121.785 39.1725 122.285 37.0425 125.105 36.2725C126.777 35.8636 128.537 36.0256 130.105 36.7325C131.615 37.3725 133.005 38.3725 134.625 38.6325C135.601 38.6605 136.572 38.7811 137.525 38.9925C138.062 39.2201 138.527 39.59 138.869 40.0623C139.211 40.5347 139.417 41.0914 139.465 41.6725Z" fill="url(#paint5_linear_148_440)"/>
<path d="M97.5854 177.543L98.9354 183.283L109.235 182.783L106.535 177.203L97.5854 177.543Z" fill="#F7AD7E"/>
<path d="M147.835 173.153L144.795 180.583L154.595 181.153L155.835 173.493L147.835 173.153Z" fill="#F7AD7E"/>
<path d="M112.705 182.613H96.8254V185.433H112.705V182.613Z" fill="#F3FCFF"/>
<path d="M156.465 180.633H141.865V183.283H156.465V180.633Z" fill="#F3FCFF"/>
<path d="M118.635 115.383H114.285V113.583H117.125C117.865 108.813 118.485 98.3125 113.945 96.5125C113.496 96.3123 112.991 96.2695 112.514 96.391C112.037 96.5126 111.615 96.7914 111.315 97.1825C108.255 100.453 107.755 110.323 108.235 111.563C108.46 111.796 108.733 111.978 109.035 112.096C109.338 112.213 109.662 112.263 109.985 112.243L110.255 114.023C109.626 114.09 108.99 114.008 108.399 113.782C107.808 113.556 107.279 113.193 106.855 112.723C105.485 111.213 106.505 100.873 109.345 96.7725C110.755 94.7725 112.625 94.0525 114.615 94.8425C121.745 97.6725 118.895 113.953 118.765 114.643L118.635 115.383Z" fill="#68E1FD"/>
<path d="M118.635 115.383H114.285V113.583H117.125C117.865 108.813 118.485 98.3125 113.945 96.5125C113.496 96.3123 112.991 96.2695 112.514 96.391C112.037 96.5126 111.615 96.7914 111.315 97.1825C108.255 100.453 107.755 110.323 108.235 111.563C108.46 111.796 108.733 111.978 109.035 112.096C109.338 112.213 109.662 112.263 109.985 112.243L110.255 114.023C109.626 114.09 108.99 114.008 108.399 113.782C107.808 113.556 107.279 113.193 106.855 112.723C105.485 111.213 106.505 100.873 109.345 96.7725C110.755 94.7725 112.625 94.0525 114.615 94.8425C121.745 97.6725 118.895 113.953 118.765 114.643L118.635 115.383Z" fill="url(#paint6_linear_148_440)"/>
<path d="M110.885 113.299C110.962 112.502 110.543 111.81 109.949 111.753C109.355 111.696 108.812 112.296 108.735 113.093C108.659 113.89 109.078 114.582 109.672 114.639C110.266 114.696 110.809 114.096 110.885 113.299Z" fill="#68E1FD"/>
<path d="M115.158 114.592C115.235 113.795 114.815 113.102 114.222 113.045C113.628 112.988 113.085 113.588 113.008 114.386C112.932 115.183 113.351 115.875 113.945 115.932C114.538 115.989 115.082 115.389 115.158 114.592Z" fill="#68E1FD"/>
<path d="M110.885 113.299C110.962 112.502 110.543 111.81 109.949 111.753C109.355 111.696 108.812 112.296 108.735 113.093C108.659 113.89 109.078 114.582 109.672 114.639C110.266 114.696 110.809 114.096 110.885 113.299Z" fill="url(#paint7_linear_148_440)"/>
<path d="M115.158 114.592C115.235 113.795 114.815 113.102 114.222 113.045C113.628 112.988 113.085 113.588 113.008 114.386C112.932 115.183 113.351 115.875 113.945 115.932C114.538 115.989 115.082 115.389 115.158 114.592Z" fill="url(#paint8_linear_148_440)"/>
<path d="M140.125 115.472C141.931 115.472 143.395 114.008 143.395 112.202C143.395 110.397 141.931 108.932 140.125 108.932C138.319 108.932 136.855 110.397 136.855 112.202C136.855 114.008 138.319 115.472 140.125 115.472Z" fill="#68E1FD"/>
<path d="M140.655 113.783C141.937 113.783 142.975 112.744 142.975 111.463C142.975 110.181 141.937 109.143 140.655 109.143C139.374 109.143 138.335 110.181 138.335 111.463C138.335 112.744 139.374 113.783 140.655 113.783Z" fill="url(#paint9_linear_148_440)"/>
<path d="M140.775 112.813C141.56 112.813 142.195 112.177 142.195 111.393C142.195 110.608 141.56 109.973 140.775 109.973C139.991 109.973 139.355 110.608 139.355 111.393C139.355 112.177 139.991 112.813 140.775 112.813Z" fill="#F3FCFF"/>
<path d="M138.595 112.513L137.155 113.573C137.155 113.573 137.955 114.963 138.765 115.173L139.765 113.573C139.765 113.573 139.045 113.573 138.595 112.513Z" fill="url(#paint10_linear_148_440)"/>
<path d="M167.215 321.263C168.035 321.763 168.985 322.493 168.925 323.543C168.873 324 168.693 324.433 168.405 324.793C166.555 327.323 156.405 326.532 153.505 326.502C146.915 326.432 147.185 326.843 140.685 325.613C140.159 325.555 139.656 325.362 139.225 325.053C138.596 324.378 138.24 323.495 138.225 322.573C137.995 320.412 138.046 318.23 138.375 316.083C138.378 315.971 138.403 315.861 138.45 315.76C138.496 315.658 138.563 315.567 138.645 315.493C138.728 315.453 138.819 315.433 138.91 315.433C139.002 315.433 139.093 315.453 139.175 315.493C140.207 315.93 141.279 316.265 142.375 316.493C144.176 316.69 145.99 316.274 147.525 315.312C148.32 314.843 149.076 314.312 149.785 313.722C150.275 313.332 151.235 312.092 151.835 312.032C152.435 311.972 153.555 312.972 154.125 313.312L156.835 314.953L167.215 321.263Z" fill="#3F3D56"/>
<path d="M113.905 316.343C111.486 315.562 109.258 314.281 107.365 312.583C107.01 312.225 106.552 311.987 106.055 311.903C105.809 311.904 105.565 311.952 105.335 312.043C100.772 313.511 96.4343 315.604 92.4455 318.263C91.3855 318.953 90.2155 319.973 90.3055 321.353C90.4055 322.953 92.0655 323.713 93.4555 324.063C101.488 326.095 109.837 326.56 118.045 325.433C118.766 325.388 119.459 325.142 120.045 324.723C120.714 324.005 121.116 323.081 121.185 322.103C121.535 319.973 121.685 317.003 120.775 315.043C119.794 315.745 118.67 316.226 117.484 316.45C116.297 316.675 115.076 316.638 113.905 316.343Z" fill="#3F3D56"/>
<path d="M120.095 82.7826C120.095 82.7826 124.095 91.5526 126.285 92.6626L121.285 95.9826L119.805 87.4926L120.095 82.7826Z" fill="#68E1FD"/>
<path d="M135.045 82.8726C135.045 82.8726 131.485 92.4726 126.315 92.6626L131.605 97.5226L135.415 90.5226L135.045 82.8726Z" fill="#68E1FD"/>
<path d="M120.095 82.7826C120.095 82.7826 124.095 91.5526 126.285 92.6626L121.285 95.9826L119.805 87.4926L120.095 82.7826Z" fill="url(#paint11_linear_148_440)"/>
<path d="M135.045 82.8726C135.045 82.8726 131.485 92.4726 126.315 92.6626L131.605 97.5226L135.415 90.5226L135.045 82.8726Z" fill="url(#paint12_linear_148_440)"/>
<path d="M123.235 94.4126L124.985 97.3626L123.695 160.043L129.235 167.803L132.925 154.873L127.755 97.4526L129.235 95.2426L126.285 92.6526L123.235 94.4126Z" fill="#3F3D56"/>
</g>
<defs>
<filter id="filter0_d_148_440" x="0" y="0" width="290.742" height="352.582" filterUnits="userSpaceOnUse" color-interpolation-filters="sRGB">
<feFlood flood-opacity="0" result="BackgroundImageFix"/>
<feColorMatrix in="SourceAlpha" type="matrix" values="0 0 0 0 0 0 0 0 0 0 0 0 0 0 0 0 0 0 127 0" result="hardAlpha"/>
<feOffset dy="4"/>
<feGaussianBlur stdDeviation="2"/>
<feComposite in2="hardAlpha" operator="out"/>
<feColorMatrix type="matrix" values="0 0 0 0 0 0 0 0 0 0 0 0 0 0 0 0 0 0 0.25 0"/>
<feBlend mode="normal" in2="BackgroundImageFix" result="effect1_dropShadow_148_440"/>
<feBlend mode="normal" in="SourceGraphic" in2="effect1_dropShadow_148_440" result="shape"/>
</filter>
<linearGradient id="paint0_linear_148_440" x1="126.085" y1="107.503" x2="130.815" y2="65.0426" gradientUnits="userSpaceOnUse">
<stop offset="0.02" stop-color="white" stop-opacity="0"/>
<stop offset="0.39" stop-color="white" stop-opacity="0.39"/>
<stop offset="1" stop-color="white"/>
</linearGradient>
<linearGradient id="paint1_linear_148_440" x1="129.065" y1="58.2925" x2="126.365" y2="90.5025" gradientUnits="userSpaceOnUse">
<stop offset="0.01"/>
<stop offset="0.83" stop-opacity="0.07"/>
<stop offset="1" stop-opacity="0"/>
</linearGradient>
<linearGradient id="paint2_linear_148_440" x1="1473.45" y1="15576.5" x2="3562.06" y2="15660.8" gradientUnits="userSpaceOnUse">
<stop offset="0.01"/>
<stop offset="0.83" stop-opacity="0.07"/>
<stop offset="1" stop-opacity="0"/>
</linearGradient>
<linearGradient id="paint3_linear_148_440" x1="-93042.9" y1="15430.7" x2="-95160.7" y2="15499.5" gradientUnits="userSpaceOnUse">
<stop offset="0.01"/>
<stop offset="0.83" stop-opacity="0.07"/>
<stop offset="1" stop-opacity="0"/>
</linearGradient>
<linearGradient id="paint4_linear_148_440" x1="1464.29" y1="724.211" x2="1506.83" y2="724.211" gradientUnits="userSpaceOnUse">
<stop offset="0.01"/>
<stop offset="0.83" stop-opacity="0.07"/>
<stop offset="1" stop-opacity="0"/>
</linearGradient>
<linearGradient id="paint5_linear_148_440" x1="3631.31" y1="392.877" x2="3982.87" y2="392.877" gradientUnits="userSpaceOnUse">
<stop offset="0.01"/>
<stop offset="0.83" stop-opacity="0.07"/>
<stop offset="1" stop-opacity="0"/>
</linearGradient>
<linearGradient id="paint6_linear_148_440" x1="2477.62" y1="2515.5" x2="2466.4" y2="1855.78" gradientUnits="userSpaceOnUse">
<stop offset="0.02" stop-color="white" stop-opacity="0"/>
<stop offset="0.39" stop-color="white" stop-opacity="0.39"/>
<stop offset="1" stop-color="white"/>
</linearGradient>
<linearGradient id="paint7_linear_148_440" x1="617.812" y1="360.361" x2="624.105" y2="360.361" gradientUnits="userSpaceOnUse">
<stop offset="0.01"/>
<stop offset="0.83" stop-opacity="0.07"/>
<stop offset="1" stop-opacity="0"/>
</linearGradient>
<linearGradient id="paint8_linear_148_440" x1="634.501" y1="364.436" x2="640.794" y2="364.436" gradientUnits="userSpaceOnUse">
<stop offset="0.01"/>
<stop offset="0.83" stop-opacity="0.07"/>
<stop offset="1" stop-opacity="0"/>
</linearGradient>
<linearGradient id="paint9_linear_148_440" x1="776.614" y1="605.715" x2="768.494" y2="645.202" gradientUnits="userSpaceOnUse">
<stop offset="0.01"/>
<stop offset="0.83" stop-opacity="0.07"/>
<stop offset="1" stop-opacity="0"/>
</linearGradient>
<linearGradient id="paint10_linear_148_440" x1="675.338" y1="395.537" x2="671.896" y2="434.175" gradientUnits="userSpaceOnUse">
<stop offset="0.01"/>
<stop offset="0.83" stop-opacity="0.07"/>
<stop offset="1" stop-opacity="0"/>
</linearGradient>
<linearGradient id="paint11_linear_148_440" x1="1355.8" y1="1175.35" x2="1297.82" y2="1493.97" gradientUnits="userSpaceOnUse">
<stop offset="0.02" stop-color="white" stop-opacity="0"/>
<stop offset="0.39" stop-color="white" stop-opacity="0.39"/>
<stop offset="1" stop-color="white"/>
</linearGradient>
<linearGradient id="paint12_linear_148_440" x1="1934.21" y1="1305.85" x2="1882.74" y2="1663.79" gradientUnits="userSpaceOnUse">
<stop offset="0.02" stop-color="white" stop-opacity="0"/>
<stop offset="0.39" stop-color="white" stop-opacity="0.39"/>
<stop offset="1" stop-color="white"/>
</linearGradient>
</defs>
</svg>
