<svg width="30" height="33" viewBox="0 0 30 33" fill="none" xmlns="http://www.w3.org/2000/svg">
<g filter="url(#filter0_d_61_69)">
<path d="M26 13.4665C26.0014 12.748 25.8018 12.0434 25.4236 11.4329C25.0455 10.8225 24.5041 10.3306 23.861 10.0133C23.2179 9.69598 22.4989 9.56591 21.7858 9.63788C21.0726 9.70985 20.3939 9.98098 19.8268 10.4204C19.2596 10.8599 18.8269 11.45 18.5777 12.1238C18.3286 12.7976 18.273 13.5279 18.4172 14.2317C18.5615 14.9356 18.8999 15.5848 19.3939 16.1054C19.8879 16.6261 20.5177 16.9973 21.2118 17.177V18.2667C21.2118 19.5433 20.7059 20.7675 19.8055 21.6702C18.9051 22.5728 17.6839 23.0799 16.4106 23.0799C15.1372 23.0799 13.916 22.5728 13.0157 21.6702C12.1153 20.7675 11.6094 19.5433 11.6094 18.2667C11.6576 17.1208 11.937 15.9965 12.4308 14.9618C12.9246 13.9272 13.6225 13.0036 14.4824 12.247H14.3529C15.2681 11.6485 16.0228 10.834 16.5508 9.8749C17.0787 8.91583 17.3639 7.84153 17.3812 6.74624V2.88012C17.3812 2.11627 17.0785 1.3837 16.5397 0.843569C16.0009 0.303441 15.2702 0 14.5082 0H13.0588C12.8049 3.79412e-09 12.5613 0.101147 12.3817 0.28119C12.2021 0.461232 12.1012 0.705423 12.1012 0.960041C12.1012 1.21466 12.2021 1.45885 12.3817 1.63889C12.5613 1.81894 12.8049 1.92008 13.0588 1.92008H14.4824C14.7363 1.92008 14.9799 2.02123 15.1595 2.20127C15.3391 2.38132 15.44 2.62551 15.44 2.88012V6.74624C15.44 8.01485 14.9391 9.23189 14.0467 10.1314C13.1544 11.0308 11.9431 11.5396 10.6777 11.5464C10.0489 11.5499 9.42554 11.4291 8.8433 11.191C8.26106 10.9529 7.7313 10.6022 7.28427 10.1589C6.83724 9.71553 6.48169 9.18827 6.23792 8.60718C5.99415 8.02609 5.86694 7.40256 5.86355 6.77218V2.88012C5.86355 2.62551 5.96444 2.38132 6.14404 2.20127C6.32363 2.02123 6.56721 1.92008 6.82119 1.92008H8.16708C8.42106 1.92008 8.66464 1.81894 8.84423 1.63889C9.02383 1.45885 9.12472 1.21466 9.12472 0.960041C9.12472 0.705423 9.02383 0.461232 8.84423 0.28119C8.66464 0.101147 8.42106 0 8.16708 0H6.82119C6.06825 0.0136027 5.35074 0.323038 4.8231 0.861699C4.29547 1.40036 3.9999 2.12517 4.00002 2.88012V6.74624C3.99723 7.82528 4.25466 8.889 4.75038 9.84679C5.24611 10.8046 5.96543 11.628 6.84708 12.247C7.70223 13.0059 8.39531 13.9305 8.88461 14.965C9.3739 15.9996 9.64927 17.1227 9.69413 18.2667C9.69413 19.151 9.86786 20.0265 10.2054 20.8434C10.5429 21.6604 11.0377 22.4026 11.6613 23.0279C12.285 23.6531 13.0254 24.1491 13.8403 24.4875C14.6552 24.8258 15.5286 25 16.4106 25C17.2926 25 18.166 24.8258 18.9809 24.4875C19.7958 24.1491 20.5362 23.6531 21.1598 23.0279C21.7835 22.4026 22.2783 21.6604 22.6158 20.8434C22.9533 20.0265 23.1271 19.151 23.1271 18.2667V17.177C23.948 16.9645 24.6755 16.4849 25.1954 15.8134C25.7153 15.142 25.9983 14.3165 26 13.4665ZM22.1176 15.3866C21.7388 15.3866 21.3685 15.274 21.0536 15.063C20.7386 14.852 20.4931 14.5522 20.3481 14.2013C20.2032 13.8505 20.1653 13.4644 20.2392 13.0919C20.3131 12.7195 20.4955 12.3774 20.7633 12.1088C21.0312 11.8403 21.3725 11.6574 21.744 11.5833C22.1155 11.5093 22.5006 11.5473 22.8506 11.6926C23.2006 11.8379 23.4997 12.084 23.7102 12.3998C23.9206 12.7155 24.0329 13.0868 24.0329 13.4665C24.0329 13.7187 23.9834 13.9684 23.8871 14.2013C23.7909 14.4343 23.6498 14.6459 23.472 14.8242C23.2941 15.0025 23.083 15.144 22.8506 15.2405C22.6182 15.3369 22.3692 15.3866 22.1176 15.3866Z" fill="#8C8FA5"/>
</g>
<defs>
<filter id="filter0_d_61_69" x="0" y="0" width="30" height="33" filterUnits="userSpaceOnUse" color-interpolation-filters="sRGB">
<feFlood flood-opacity="0" result="BackgroundImageFix"/>
<feColorMatrix in="SourceAlpha" type="matrix" values="0 0 0 0 0 0 0 0 0 0 0 0 0 0 0 0 0 0 127 0" result="hardAlpha"/>
<feOffset dy="4"/>
<feGaussianBlur stdDeviation="2"/>
<feComposite in2="hardAlpha" operator="out"/>
<feColorMatrix type="matrix" values="0 0 0 0 0 0 0 0 0 0 0 0 0 0 0 0 0 0 0.25 0"/>
<feBlend mode="normal" in2="BackgroundImageFix" result="effect1_dropShadow_61_69"/>
<feBlend mode="normal" in="SourceGraphic" in2="effect1_dropShadow_61_69" result="shape"/>
</filter>
</defs>
</svg>
